<svg id="svg" version="1.1" xmlns="http://www.w3.org/2000/svg" xmlns:xlink="http://www.w3.org/1999/xlink" width="400" height="400" viewBox="0, 0, 400,400"><g id="svgg"><path id="path0" d="M118.183 123.700 C 118.077 123.976,118.037 131.132,118.095 139.601 L 118.200 155.000 149.400 155.000 L 180.600 155.000 180.600 150.200 L 180.600 145.400 154.800 145.300 C 131.110 145.208,128.959 145.144,128.500 144.523 C 127.979 143.819,127.770 135.464,128.243 134.233 C 128.463 133.659,135.579 133.599,204.743 133.594 C 246.684 133.591,281.231 133.441,281.513 133.262 C 281.895 133.020,281.998 131.714,281.913 128.168 L 281.800 123.400 200.088 123.299 C 134.833 123.218,118.337 123.299,118.183 123.700 M195.068 145.465 C 194.921 145.613,194.800 173.584,194.800 207.624 C 194.800 263.691,194.740 269.537,194.167 269.757 C 192.933 270.231,181.786 270.026,181.280 269.520 C 180.912 269.152,180.800 257.423,180.800 219.163 C 180.800 174.050,180.740 169.262,180.167 169.043 C 179.203 168.673,119.074 168.765,118.487 169.138 C 118.105 169.380,118.002 170.686,118.087 174.232 L 118.200 179.000 144.053 179.103 C 165.083 179.187,169.990 179.306,170.352 179.742 C 170.672 180.128,170.825 194.234,170.898 230.039 L 171.000 279.800 187.900 279.904 C 197.195 279.962,204.844 279.962,204.897 279.904 C 204.950 279.847,205.085 251.810,205.197 217.600 L 205.400 155.400 238.156 155.298 C 262.024 155.223,271.060 155.318,271.456 155.647 C 272.103 156.184,272.237 167.405,271.609 168.400 C 271.280 168.920,267.767 169.027,245.315 169.200 L 219.400 169.400 219.400 224.600 L 219.400 279.800 224.200 279.800 L 229.000 279.800 229.102 230.039 C 229.175 194.234,229.328 180.128,229.648 179.742 C 230.010 179.306,234.917 179.187,255.947 179.103 L 281.800 179.000 281.800 162.200 L 281.800 145.400 238.568 145.298 C 214.791 145.242,195.216 145.317,195.068 145.465 " stroke="none" fill="#ececec" fill-rule="evenodd"></path><path id="path1" d="M24.989 0.553 C 24.555 0.857,24.089 1.082,23.952 1.053 C 23.816 1.024,23.186 1.397,22.552 1.883 C 21.919 2.369,21.275 2.729,21.122 2.683 C 20.969 2.637,20.238 3.188,19.496 3.907 C 18.754 4.626,18.024 5.091,17.874 4.940 C 17.723 4.790,17.600 4.877,17.600 5.133 C 17.600 5.390,17.375 5.555,17.100 5.500 C 16.825 5.445,16.649 5.638,16.710 5.930 C 16.770 6.221,16.656 6.358,16.455 6.234 C 15.973 5.936,15.122 6.980,15.503 7.401 C 15.667 7.581,15.603 7.616,15.361 7.478 C 15.120 7.341,14.417 7.756,13.800 8.400 C 13.183 9.044,12.525 9.477,12.339 9.362 C 12.152 9.247,12.000 9.439,12.000 9.789 C 12.000 10.139,11.595 10.576,11.100 10.759 C 10.605 10.942,10.205 11.251,10.211 11.446 C 10.216 11.641,9.406 12.670,8.411 13.733 C 7.415 14.796,6.649 15.844,6.710 16.062 C 6.770 16.281,6.648 16.353,6.438 16.223 C 6.040 15.978,5.478 16.635,5.347 17.498 C 5.305 17.772,4.760 18.538,4.136 19.200 C 3.511 19.861,3.000 20.559,3.000 20.749 C 3.000 20.939,2.603 21.614,2.117 22.248 C 1.631 22.881,1.205 23.580,1.169 23.800 C 1.134 24.020,0.857 24.555,0.553 24.989 C -0.339 26.262,-0.269 373.788,0.623 374.680 C 0.966 375.023,1.162 375.523,1.059 375.791 C 0.956 376.060,1.305 376.785,1.836 377.402 C 2.366 378.019,2.800 378.723,2.800 378.966 C 2.800 379.209,3.228 379.870,3.751 380.433 C 4.273 380.997,4.821 381.836,4.967 382.296 C 5.113 382.757,6.060 383.875,7.071 384.779 C 8.082 385.684,8.811 386.523,8.690 386.643 C 8.398 386.935,12.920 391.552,13.287 391.337 C 13.445 391.245,14.255 391.923,15.087 392.846 C 15.919 393.768,17.144 394.750,17.808 395.028 C 18.473 395.306,19.355 395.909,19.770 396.367 C 20.185 396.825,20.753 397.200,21.033 397.200 C 21.314 397.200,21.781 397.425,22.073 397.700 C 23.228 398.789,24.158 399.407,23.835 398.870 C 23.571 398.432,23.661 398.431,24.358 398.867 C 24.821 399.156,25.200 399.529,25.200 399.696 C 25.200 400.145,374.705 400.079,374.867 399.630 C 374.940 399.426,375.263 399.201,375.585 399.130 C 375.907 399.058,376.625 398.595,377.181 398.100 C 377.737 397.605,378.481 397.200,378.834 397.200 C 379.187 397.200,379.802 396.840,380.200 396.400 C 380.598 395.960,381.174 395.600,381.479 395.600 C 381.785 395.600,383.033 394.609,384.254 393.399 C 385.474 392.188,386.605 391.280,386.767 391.380 C 387.183 391.637,391.682 387.016,391.345 386.678 C 391.193 386.526,391.750 385.820,392.583 385.109 C 394.166 383.756,397.200 379.507,397.200 378.641 C 397.200 378.365,397.644 377.722,398.188 377.212 C 398.731 376.701,399.089 376.144,398.984 375.974 C 398.879 375.804,399.064 375.393,399.396 375.061 C 400.343 374.114,400.313 25.406,399.367 25.043 C 399.018 24.909,398.812 24.575,398.907 24.300 C 399.003 24.025,398.658 23.291,398.140 22.669 C 397.623 22.047,397.200 21.326,397.200 21.065 C 397.200 20.805,396.772 20.130,396.249 19.567 C 395.727 19.003,395.180 18.166,395.034 17.708 C 394.889 17.249,393.967 16.134,392.987 15.231 C 392.006 14.327,391.248 13.435,391.302 13.248 C 391.356 13.062,390.365 11.895,389.100 10.655 C 387.835 9.415,386.800 8.517,386.800 8.658 C 386.800 8.800,385.821 7.990,384.624 6.858 C 383.427 5.726,382.198 4.800,381.894 4.800 C 381.589 4.800,380.917 4.350,380.400 3.800 C 379.883 3.250,379.177 2.797,378.830 2.793 C 378.484 2.789,377.777 2.340,377.259 1.795 C 376.742 1.249,376.156 0.904,375.956 1.027 C 375.757 1.150,375.312 0.970,374.968 0.626 C 374.074 -0.269,26.265 -0.341,24.989 0.553 M282.713 123.100 C 283.306 124.546,283.047 133.600,282.400 134.009 C 282.027 134.244,252.880 134.390,205.500 134.394 L 129.200 134.400 129.200 139.200 L 129.200 144.000 154.724 144.000 C 174.609 144.000,180.399 144.111,180.936 144.504 C 181.539 144.945,181.611 145.678,181.512 150.404 L 181.400 155.800 149.400 155.800 L 117.400 155.800 117.295 139.601 C 117.238 130.691,117.277 123.176,117.383 122.901 C 117.733 121.988,282.338 122.187,282.713 123.100 M282.224 144.567 C 283.080 145.193,283.683 175.423,282.899 178.449 L 282.549 179.800 256.575 180.000 L 230.600 180.200 230.498 229.961 C 230.424 266.518,230.276 279.868,229.940 280.272 C 229.585 280.700,228.276 280.797,224.042 280.711 L 218.600 280.600 218.499 224.843 C 218.424 183.968,218.517 168.941,218.848 168.543 C 219.218 168.096,223.856 168.000,245.049 168.000 L 270.800 168.000 270.800 162.200 L 270.800 156.400 238.401 156.400 L 206.003 156.400 205.901 218.500 L 205.800 280.600 188.200 280.705 C 172.009 280.802,170.560 280.756,170.100 280.129 C 169.706 279.592,169.600 268.873,169.600 229.726 L 169.600 180.006 143.500 179.903 L 117.400 179.800 117.288 174.231 C 117.204 170.044,117.304 168.581,117.688 168.337 C 118.770 167.651,180.677 167.934,181.371 168.629 C 181.936 169.193,182.000 174.315,182.000 219.029 L 182.000 268.800 188.000 268.800 L 194.000 268.800 194.000 206.820 C 194.000 148.213,194.038 144.818,194.700 144.432 C 195.912 143.726,281.253 143.858,282.224 144.567 " stroke="none" fill="#444444" fill-rule="evenodd"></path><path id="path2" d="M117.382 139.200 C 117.382 147.890,117.435 151.445,117.500 147.100 C 117.564 142.755,117.564 135.645,117.500 131.300 C 117.435 126.955,117.382 130.510,117.382 139.200 M282.554 128.400 C 282.554 131.150,282.618 132.275,282.696 130.900 C 282.774 129.525,282.774 127.275,282.696 125.900 C 282.618 124.525,282.554 125.650,282.554 128.400 M138.600 144.691 C 162.435 144.968,181.107 144.972,180.938 144.700 C 180.836 144.535,169.198 144.442,155.076 144.492 C 140.954 144.543,133.540 144.633,138.600 144.691 M216.931 144.700 C 228.993 144.759,248.613 144.759,260.531 144.700 C 272.449 144.641,262.580 144.593,238.600 144.593 C 214.620 144.593,204.869 144.641,216.931 144.700 M282.400 162.280 C 282.290 171.784,282.337 179.423,282.504 179.256 C 282.672 179.088,282.762 171.312,282.704 161.976 L 282.600 145.000 282.400 162.280 M181.353 150.200 C 181.353 152.840,181.418 153.868,181.497 152.484 C 181.575 151.101,181.574 148.941,181.495 147.684 C 181.416 146.428,181.352 147.560,181.353 150.200 M133.930 155.900 C 142.581 155.960,156.621 155.960,165.130 155.900 C 173.638 155.840,166.560 155.790,149.400 155.790 C 132.240 155.790,125.278 155.840,133.930 155.900 M222.300 155.900 C 231.155 155.960,245.645 155.960,254.500 155.900 C 263.355 155.840,256.110 155.791,238.400 155.791 C 220.690 155.791,213.445 155.840,222.300 155.900 M117.354 174.000 C 117.354 176.750,117.418 177.875,117.496 176.500 C 117.574 175.125,117.574 172.875,117.496 171.500 C 117.418 170.125,117.354 171.250,117.354 174.000 M181.394 218.800 C 181.394 246.190,181.442 257.395,181.500 243.700 C 181.558 230.005,181.558 207.595,181.500 193.900 C 181.442 180.205,181.394 191.410,181.394 218.800 M218.594 224.400 C 218.594 254.650,218.642 267.025,218.700 251.900 C 218.758 236.775,218.758 212.025,218.700 196.900 C 218.642 181.775,218.594 194.150,218.594 224.400 M131.529 179.900 C 138.640 179.961,150.160 179.961,157.129 179.900 C 164.098 179.838,158.280 179.788,144.200 179.788 C 130.120 179.788,124.418 179.839,131.529 179.900 M243.129 179.900 C 250.240 179.961,261.760 179.961,268.729 179.900 C 275.698 179.838,269.880 179.788,255.800 179.788 C 241.720 179.788,236.018 179.839,243.129 179.900 M179.500 280.700 C 184.175 280.764,191.825 280.764,196.500 280.700 C 201.175 280.636,197.350 280.583,188.000 280.583 C 178.650 280.583,174.825 280.636,179.500 280.700 M221.900 280.696 C 223.275 280.774,225.525 280.774,226.900 280.696 C 228.275 280.618,227.150 280.554,224.400 280.554 C 221.650 280.554,220.525 280.618,221.900 280.696 " stroke="none" fill="#6c6c74" fill-rule="evenodd"></path><path id="path3" d="M117.783 123.300 C 117.677 123.576,117.638 130.911,117.695 139.601 L 117.800 155.400 149.400 155.400 L 181.000 155.400 181.000 150.200 L 181.000 145.000 155.000 144.793 C 140.700 144.679,128.955 144.544,128.900 144.493 C 128.845 144.442,128.800 142.060,128.800 139.201 L 128.800 134.002 205.500 133.901 L 282.200 133.800 282.200 128.400 L 282.200 123.000 200.088 122.899 C 134.538 122.818,117.937 122.899,117.783 123.300 M281.913 128.168 C 281.998 131.714,281.895 133.020,281.513 133.262 C 281.231 133.441,246.684 133.591,204.743 133.594 C 135.579 133.599,128.463 133.659,128.243 134.233 C 127.770 135.464,127.979 143.819,128.500 144.523 C 128.959 145.144,131.110 145.208,154.800 145.300 L 180.600 145.400 180.600 150.200 L 180.600 155.000 149.400 155.000 L 118.200 155.000 118.095 139.601 C 118.037 131.132,118.077 123.976,118.183 123.700 C 118.337 123.299,134.833 123.218,200.088 123.299 L 281.800 123.400 281.913 128.168 M194.667 145.067 C 194.520 145.213,194.400 173.203,194.400 207.267 L 194.400 269.200 188.000 269.200 C 184.480 269.200,181.557 269.155,181.504 269.100 C 181.451 269.045,181.316 246.410,181.204 218.800 L 181.000 168.600 149.400 168.600 L 117.800 168.600 117.800 174.000 L 117.800 179.400 143.800 179.600 L 169.800 179.800 170.005 230.000 C 170.118 257.610,170.253 280.247,170.305 280.304 C 170.357 280.362,178.275 280.362,187.900 280.304 L 205.400 280.200 205.501 218.223 C 205.581 169.250,205.707 156.179,206.101 155.929 C 206.678 155.562,269.617 155.478,270.567 155.843 C 271.106 156.050,271.200 156.997,271.200 162.243 L 271.200 168.400 245.449 168.400 C 224.256 168.400,219.618 168.496,219.248 168.943 C 218.917 169.341,218.824 184.263,218.899 224.843 L 219.000 280.200 224.300 280.312 C 227.215 280.373,229.643 280.373,229.696 280.312 C 229.749 280.250,229.884 257.610,229.996 230.000 L 230.200 179.800 256.200 179.600 L 282.200 179.400 282.304 162.100 L 282.408 144.800 238.671 144.800 C 214.615 144.800,194.813 144.920,194.667 145.067 M281.800 162.200 L 281.800 179.000 255.947 179.103 C 234.917 179.187,230.010 179.306,229.648 179.742 C 229.328 180.128,229.175 194.234,229.102 230.039 L 229.000 279.800 224.200 279.800 L 219.400 279.800 219.400 224.600 L 219.400 169.400 245.315 169.200 C 267.767 169.027,271.280 168.920,271.609 168.400 C 272.237 167.405,272.103 156.184,271.456 155.647 C 271.060 155.318,262.024 155.223,238.156 155.298 L 205.400 155.400 205.197 217.600 C 205.085 251.810,204.950 279.847,204.897 279.904 C 204.844 279.962,197.195 279.962,187.900 279.904 L 171.000 279.800 170.898 230.039 C 170.825 194.234,170.672 180.128,170.352 179.742 C 169.990 179.306,165.083 179.187,144.053 179.103 L 118.200 179.000 118.087 174.232 C 118.002 170.686,118.105 169.380,118.487 169.138 C 119.074 168.765,179.203 168.673,180.167 169.043 C 180.740 169.262,180.800 174.050,180.800 219.163 C 180.800 257.423,180.912 269.152,181.280 269.520 C 181.786 270.026,192.933 270.231,194.167 269.757 C 194.740 269.537,194.800 263.691,194.800 207.624 C 194.800 173.584,194.921 145.613,195.068 145.465 C 195.216 145.317,214.791 145.242,238.568 145.298 L 281.800 145.400 281.800 162.200 " stroke="none" fill="#84848c" fill-rule="evenodd"></path><path id="path4" d="M117.384 122.826 C 117.239 123.061,117.228 123.361,117.360 123.493 C 117.492 123.625,117.600 123.523,117.600 123.267 C 117.600 122.642,282.227 122.586,282.537 123.210 C 282.649 123.436,282.694 123.391,282.637 123.110 C 282.499 122.431,117.803 122.147,117.384 122.826 M282.940 128.400 C 282.940 130.270,283.009 131.035,283.093 130.100 C 283.177 129.165,283.177 127.635,283.093 126.700 C 283.009 125.765,282.940 126.530,282.940 128.400 M282.154 133.606 C 281.901 133.859,254.631 134.034,205.381 134.099 L 129.000 134.200 129.000 139.200 L 129.000 144.200 154.700 144.204 L 180.400 144.209 154.800 144.102 L 129.200 143.994 129.200 139.197 L 129.200 134.400 205.500 134.394 C 275.704 134.388,283.623 134.289,282.762 133.428 C 282.643 133.310,282.370 133.390,282.154 133.606 M194.700 144.432 C 194.038 144.818,194.000 148.213,194.000 206.820 L 194.000 268.800 188.000 268.800 L 182.000 268.800 181.994 219.100 C 181.991 191.765,181.856 169.192,181.694 168.938 C 181.377 168.440,181.475 267.863,181.792 268.710 C 181.938 269.101,183.423 269.195,188.091 269.110 L 194.200 269.000 194.301 206.900 C 194.357 172.745,194.447 144.757,194.501 144.704 C 194.556 144.652,214.220 144.515,238.200 144.401 L 281.800 144.193 238.600 144.109 C 209.828 144.052,195.166 144.160,194.700 144.432 M282.982 162.600 C 282.982 171.180,283.035 174.633,283.100 170.274 C 283.164 165.914,283.164 158.894,283.099 154.674 C 283.035 150.453,282.982 154.020,282.982 162.600 M238.400 156.299 L 270.800 156.405 270.800 162.202 L 270.800 168.000 245.080 168.000 C 219.172 168.000,218.400 168.039,218.400 169.356 C 218.400 169.575,218.625 169.449,218.900 169.077 C 219.359 168.456,221.510 168.392,245.200 168.300 L 271.000 168.200 271.000 162.200 L 271.000 156.200 238.500 156.196 L 206.000 156.193 238.400 156.299 M205.699 218.467 C 205.620 267.512,205.496 280.375,205.100 280.535 C 204.708 280.693,204.711 280.744,205.113 280.768 C 206.008 280.824,206.007 280.878,205.901 218.200 L 205.797 156.600 205.699 218.467 M117.700 168.265 C 117.425 168.376,117.200 168.654,117.200 168.882 C 117.200 169.155,117.386 169.144,117.738 168.851 C 118.122 168.533,127.281 168.375,149.638 168.300 L 181.000 168.195 149.600 168.129 C 132.330 168.093,117.975 168.154,117.700 168.265 M169.794 229.800 C 169.794 257.300,169.842 268.491,169.900 254.669 C 169.958 240.847,169.958 218.347,169.900 204.669 C 169.842 190.991,169.794 202.300,169.794 229.800 M230.000 229.920 C 230.000 269.290,229.894 279.958,229.500 280.401 C 229.075 280.877,229.104 280.882,229.697 280.434 C 230.435 279.876,231.035 180.000,230.300 180.000 C 230.135 180.000,230.000 202.464,230.000 229.920 " stroke="none" fill="#646464" fill-rule="evenodd"></path></g></svg>